IKResults
version=1
nRows=10
nColumns=67
inDegrees=yes

Units are S.I. units (second, meters, Newtons, ...)
Angles are in degrees.

endheader
time	pelvis_tilt	pelvis_list	pelvis_rotation	pelvis_tx	pelvis_ty	pelvis_tz	hip_flexion_r	hip_adduction_r	hip_rotation_r	knee_angle_r	knee_rot_r	knee_adduc_r	ankle_angle_r	ankle_rot_r	ankle_add_r	subtalar_angle_r	mtp_angle_r	mtp_rot_r	mtp_add_r	hip_flexion_l	hip_adduction_l	hip_rotation_l	knee_angle_l	knee_rot_l	knee_adduc_l	ankle_angle_l	ankle_rot_l	ankle_add_l	subtalar_angle_l	mtp_angle_l	mtp_rot_l	mtp_add_l	lumbar_extension	lumbar_bending	lumbar_rotation	neck_flexion	neck_lateral_bending	neck_rotation	arm_flex_r	arm_add_r	arm_rot_r	elbow_flex_r	elbow_rot_r	elbow_add_r	pro_sup_r	wrist_flex_r	wrist_adduc_r	wrist_rot_r	wrist_dev_r	hand_finger_flex_r	hand_finger_adduc_r	hand_finger_rot_r	arm_flex_l	arm_add_l	arm_rot_l	elbow_flex_l	elbow_rot_l	elbow_add_l	pro_sup_l	wrist_flex_l	wrist_adduc_l	wrist_rot_l	wrist_dev_l	hand_finger_flex_l	hand_finger_adduc_l	hand_finger_rot_l
      1.40000000	     17.52198509	      9.18279893	     -0.11348092	     -0.07801443	      0.74996863	      0.54548119	      9.67296074	     -8.66115858	      4.32564485	    -17.03546598	     -5.00000000	      2.30819710	      2.19910357	     -5.00000000	      3.07724777	     -4.19498425	     21.07226620	     -1.90967303	      2.00000000	    -30.23910812	     12.52998281	      1.50587125	     -4.72567289	      5.00000000	      2.06982965	     13.69179481	     -3.44262409	      5.00000000	      4.63622862	     20.84651767	      1.72764464	      0.96192328	    -33.88852979	    -13.04138259	    -14.69729858	      0.00000000	      0.00000000	      0.00000000	      0.00000000	      0.00000000	      0.00000000	      0.00000000	      0.00000000	      0.00000000	     -0.00042092	      0.00000000	      0.00000000	      0.00000000	      0.00000000	      0.00000000	      0.00000000	      0.00000000	      0.00000000	      0.00000000	      0.00000000	      0.00000000	      0.00000000	      0.00000000	      0.00000000	      0.00000000	      0.00000000	      0.00000000	      0.00000000	      0.00000000	      0.00000000	      0.00000000
      1.40500000	     17.39260959	      9.40877524	     -0.14040599	     -0.07198496	      0.74874447	      0.54545528	      9.71708032	     -8.75337809	      4.46681936	    -15.03654307	     -5.00000000	      1.86592143	      2.24032898	     -4.99349046	      3.10067232	     -4.20015152	     21.09764623	     -1.90517419	      2.00000000	    -30.62682141	     12.66824275	      1.54740988	     -4.73418585	      5.00000000	      1.95510393	     13.83396972	     -3.42133294	      5.00000000	      4.66391268	     20.84282961	      1.71582989	      0.96599060	    -33.79401308	    -13.30241667	    -14.74528857	      0.00000000	      0.00000000	      0.00000000	      0.00000000	      0.00000000	      0.00000000	      0.00000000	      0.00000000	      0.00000000	     -0.00042092	      0.00000000	      0.00000000	      0.00000000	      0.00000000	      0.00000000	      0.00000000	      0.00000000	      0.00000000	      0.00000000	      0.00000000	      0.00000000	      0.00000000	      0.00000000	      0.00000000	      0.00000000	      0.00000000	      0.00000000	      0.00000000	      0.00000000	      0.00000000	      0.00000000
      1.41000000	     17.26501121	      9.57603126	     -0.10064959	     -0.06589025	      0.74757680	      0.54534468	      9.68904317	     -8.80063057	      4.65161054	    -13.00704727	     -5.00000000	      1.45619082	      2.07039079	     -4.99815623	      3.08867188	     -4.19248409	     21.11641336	     -1.89878582	      2.00000000	    -31.02532645	     12.72961535	      1.65697365	     -4.74573113	      5.00000000	      1.86966922	     13.97941785	     -3.43807126	      4.98015442	      4.73318704	     20.84060926	      1.70230925	      0.96975057	    -33.69594941	    -13.45052294	    -14.80192590	      0.00000000	      0.00000000	      0.00000000	      0.00000000	      0.00000000	      0.00000000	      0.00000000	      0.00000000	      0.00000000	     -0.00042092	      0.00000000	      0.00000000	      0.00000000	      0.00000000	      0.00000000	      0.00000000	      0.00000000	      0.00000000	      0.00000000	      0.00000000	      0.00000000	      0.00000000	      0.00000000	      0.00000000	      0.00000000	      0.00000000	      0.00000000	      0.00000000	      0.00000000	      0.00000000	      0.00000000
      1.41500000	     18.39282791	      9.17858763	      0.35251061	     -0.05957901	      0.74790545	      0.54499207	      7.71201640	     -8.18116152	      3.19187942	    -10.27500700	     -5.00000000	      0.59018124	      0.57299995	     -4.81443999	      3.47781561	     -4.53691649	     21.45742849	     -1.89989328	      2.00000000	    -32.93355845	     11.83680560	      2.11364596	     -4.55119362	      5.00000000	      1.64084155	     14.27075741	     -2.94661401	      4.95640828	      5.65973484	     20.77766546	      1.49734469	      1.03985575	    -35.04456214	    -12.62440929	    -15.07682214	      0.00000000	      0.00000000	      0.00000000	      0.00000000	      0.00000000	      0.00000000	      0.00000000	      0.00000000	      0.00000000	     -0.00042092	      0.00000000	      0.00000000	      0.00000000	      0.00000000	      0.00000000	      0.00000000	      0.00000000	      0.00000000	      0.00000000	      0.00000000	      0.00000000	      0.00000000	      0.00000000	      0.00000000	      0.00000000	      0.00000000	      0.00000000	      0.00000000	      0.00000000	      0.00000000	      0.00000000
      1.42000000	     18.19646272	      9.35426638	      0.34569009	     -0.05337889	      0.74664892	      0.54486196	      7.80302638	     -8.31730159	      3.41114973	     -8.47482317	     -5.00000000	      0.36038309	      0.56590073	     -4.76328977	      3.54232754	     -4.46107776	     21.47803552	     -1.89299013	      2.00000000	    -33.23634607	     11.92005826	      2.12812676	     -4.60442268	      4.99763231	      1.53244218	     14.38281334	     -2.94960751	      4.95411581	      5.72050174	     20.77895127	      1.48269188	      1.04227456	    -34.85011944	    -12.78452651	    -15.13604778	      0.00000000	      0.00000000	      0.00000000	      0.00000000	      0.00000000	      0.00000000	      0.00000000	      0.00000000	      0.00000000	     -0.00042092	      0.00000000	      0.00000000	      0.00000000	      0.00000000	      0.00000000	      0.00000000	      0.00000000	      0.00000000	      0.00000000	      0.00000000	      0.00000000	      0.00000000	      0.00000000	      0.00000000	      0.00000000	      0.00000000	      0.00000000	      0.00000000	      0.00000000	      0.00000000	      0.00000000
      1.42500000	     18.03334280	      9.50004819	      0.40745534	     -0.04713900	      0.74547219	      0.54465201	      7.82185616	     -8.41778995	      3.53288911	     -6.74121380	     -5.00000000	      0.10568191	      0.48825091	     -4.84750868	      3.59850205	     -4.45890773	     21.49143169	     -1.88981051	      2.00000000	    -33.55705727	     11.94961499	      2.20397014	     -4.70549879	      4.98132062	      1.45691257	     14.47486865	     -2.99266381	      4.92578735	      5.82835243	     20.78227443	      1.46675206	      1.04404308	    -34.70219383	    -12.87286027	    -15.16922227	      0.00000000	      0.00000000	      0.00000000	      0.00000000	      0.00000000	      0.00000000	      0.00000000	      0.00000000	      0.00000000	     -0.00042092	      0.00000000	      0.00000000	      0.00000000	      0.00000000	      0.00000000	      0.00000000	      0.00000000	      0.00000000	      0.00000000	      0.00000000	      0.00000000	      0.00000000	      0.00000000	      0.00000000	      0.00000000	      0.00000000	      0.00000000	      0.00000000	      0.00000000	      0.00000000	      0.00000000
      1.43000000	     17.91306419	      9.60781298	      0.50313078	     -0.04085511	      0.74437185	      0.54441027	      7.78633574	     -8.50596072	      3.55824432	     -5.13220248	     -5.00000000	     -0.08149449	      0.41256550	     -5.00000000	      3.67582589	     -4.49754215	     21.49951811	     -1.88939826	      2.00000000	    -33.90853161	     11.91461566	      2.29749645	     -4.83960381	      4.95892837	      1.37785904	     14.55452218	     -3.04031163	      4.87306282	      5.96170487	     20.78786130	      1.45022157	      1.04491736	    -34.59959889	    -12.88129634	    -15.22301180	      0.00000000	      0.00000000	      0.00000000	      0.00000000	      0.00000000	      0.00000000	      0.00000000	      0.00000000	      0.00000000	     -0.00042092	      0.00000000	      0.00000000	      0.00000000	      0.00000000	      0.00000000	      0.00000000	      0.00000000	      0.00000000	      0.00000000	      0.00000000	      0.00000000	      0.00000000	      0.00000000	      0.00000000	      0.00000000	      0.00000000	      0.00000000	      0.00000000	      0.00000000	      0.00000000	      0.00000000
      1.43500000	     17.84668346	      9.68074545	      0.63609151	     -0.03447621	      0.74335177	      0.54412280	      7.69990129	     -8.59111672	      3.45524945	     -3.70680322	     -5.00000000	     -0.20500469	      0.40506248	     -5.00000000	      3.79923702	     -4.58221250	     21.50352875	     -1.89248989	      2.00000000	    -34.30824898	     11.81791204	      2.40358767	     -5.00722002	      4.92220462	      1.30463675	     14.62056325	     -3.08884328	      4.79452998	      6.12397469	     20.79632884	      1.43254464	      1.04473424	    -34.54663419	    -12.82018859	    -15.30127466	      0.00000000	      0.00000000	      0.00000000	      0.00000000	      0.00000000	      0.00000000	      0.00000000	      0.00000000	      0.00000000	     -0.00042092	      0.00000000	      0.00000000	      0.00000000	      0.00000000	      0.00000000	      0.00000000	      0.00000000	      0.00000000	      0.00000000	      0.00000000	      0.00000000	      0.00000000	      0.00000000	      0.00000000	      0.00000000	      0.00000000	      0.00000000	      0.00000000	      0.00000000	      0.00000000	      0.00000000
      1.44000000	     18.51025784	      9.48020844	      1.52779748	     -0.02798137	      0.74337787	      0.54317862	      6.41614809	     -8.41433091	      1.77012802	     -2.15636564	     -5.00000000	     -0.39545517	      0.18159465	     -4.99997388	      4.74242157	     -5.27823551	     21.49537036	     -1.93328872	      1.99996366	    -35.56530018	     10.96779428	      2.84044465	     -5.12278283	      4.88240761	      1.32763141	     14.86979027	     -3.02337331	      4.30108558	      6.99267697	     20.86123273	      1.32604132	      1.03740382	    -35.44585936	    -11.94210916	    -16.14390676	      0.00000000	      0.00000000	      0.00000000	      0.00000000	      0.00000000	      0.00000000	      0.00000000	      0.00000000	      0.00000000	     -0.00042092	      0.00000000	      0.00000000	      0.00000000	      0.00000000	      0.00000000	      0.00000000	      0.00000000	      0.00000000	      0.00000000	      0.00000000	      0.00000000	      0.00000000	      0.00000000	      0.00000000	      0.00000000	      0.00000000	      0.00000000	      0.00000000	      0.00000000	      0.00000000	      0.00000000
      1.44500000	     18.52986506	      9.52859443	      1.43352653	     -0.02156123	      0.74237384	      0.54310310	      6.47548163	     -8.50817904	      1.77455420	     -1.40431171	     -5.00000000	     -0.32853737	      0.42477437	     -5.00000000	      5.00000000	     -5.17982419	     21.49867776	     -1.92990035	      1.99999066	    -35.99637827	     10.92518809	      2.88140783	     -5.36994150	      4.89875795	      1.18742845	     14.83434383	     -2.98615239	      4.27695101	      7.08932211	     20.87373512	      1.30906257	      1.03526820	    -35.41504316	    -11.97524087	    -16.03951614	      0.00000000	      0.00000000	      0.00000000	      0.00000000	      0.00000000	      0.00000000	      0.00000000	      0.00000000	      0.00000000	     -0.00042092	      0.00000000	      0.00000000	      0.00000000	      0.00000000	      0.00000000	      0.00000000	      0.00000000	      0.00000000	      0.00000000	      0.00000000	      0.00000000	      0.00000000	      0.00000000	      0.00000000	      0.00000000	      0.00000000	      0.00000000	      0.00000000	      0.00000000	      0.00000000	      0.00000000
